<svg width="24.000000" height="24.000000" viewBox="0 0 24 24" fill="none" xmlns="http://www.w3.org/2000/svg" xmlns:xlink="http://www.w3.org/1999/xlink">
	<desc>
			Created with Pixso.
	</desc>
	<defs>
		<clipPath id="clip2_137">
			<rect id="help" width="24.000000" height="24.000000" fill="white" fill-opacity="0"/>
		</clipPath>
	</defs>
	<rect id="help" width="24.000000" height="24.000000" fill="#FFFFFF" fill-opacity="0"/>
	<g clip-path="url(#clip2_137)">
		<path id="矢量 146" d="M12 2C6.47 2 2 6.48 2 12C2 17.52 6.47 22 12 22C17.52 22 22 17.52 22 12C22 6.48 17.52 2 12 2ZM13 19L11 19L11 17L13 17L13 19ZM15.07 11.25L14.16 12.17C13.45 12.9 13 13.5 13 15L11 15L11 14.5C11 13.4 11.45 12.4 12.16 11.67L13.4 10.41C13.78 10.05 14 9.55 14 9C14 7.89 13.1 7 12 7C10.89 7 10 7.89 10 9L8 9C8 6.78 9.79 5 12 5C14.21 5 16 6.78 16 9C16 9.88 15.63 10.68 15.07 11.25Z" fill="#FFFFFF" fill-opacity="1.000000" fill-rule="evenodd"/>
	</g>
</svg>
