<svg width="24.000000" height="24.000000" viewBox="0 0 24 24" fill="none" xmlns="http://www.w3.org/2000/svg" xmlns:xlink="http://www.w3.org/1999/xlink">
	<desc>
			Created with Pixso.
	</desc>
	<defs>
		<clipPath id="clip71_1250">
			<rect id="access_time" width="24.000000" height="24.000000" fill="white" fill-opacity="0"/>
		</clipPath>
	</defs>
	<rect id="access_time" width="24.000000" height="24.000000" fill="#FFFFFF" fill-opacity="0"/>
	<g clip-path="url(#clip71_1250)">
		<path id="矢量 3" d="M11.99 2C6.46 2 2 6.48 2 12C2 17.51 6.46 22 11.99 22C17.52 22 22 17.51 22 12C22 6.48 17.52 2 11.99 2ZM12 20C7.58 20 4 16.41 4 12C4 7.58 7.58 4 12 4C16.41 4 20 7.58 20 12C20 16.41 16.41 20 12 20Z" fill="#BDBD2E" fill-opacity="1.000000" fill-rule="evenodd"/>
		<path id="矢量 4" d="M12.5 7L11 7L11 13L16.25 16.15L17 14.91L12.5 12.25L12.5 7Z" fill="#BDBD2E" fill-opacity="1.000000" fill-rule="evenodd"/>
	</g>
</svg>
