<svg width="24.000000" height="24.000000" viewBox="0 0 24 24" fill="none" xmlns="http://www.w3.org/2000/svg" xmlns:xlink="http://www.w3.org/1999/xlink">
	<desc>
			Created with Pixso.
	</desc>
	<defs>
		<filter id="filter_37_234_dd" x="0.000000" y="3.000000" width="24.000000" height="23.000000" filterUnits="userSpaceOnUse" color-interpolation-filters="sRGB">
			<feFlood flood-opacity="0" result="BackgroundImageFix"/>
			<feColorMatrix in="SourceAlpha" type="matrix" values="0 0 0 0 0 0 0 0 0 0 0 0 0 0 0 0 0 0 127 0" result="hardAlpha"/>
			<feOffset dx="0" dy="3"/>
			<feGaussianBlur stdDeviation="0.666667"/>
			<feComposite in2="hardAlpha" operator="out" k2="-1" k3="1"/>
			<feColorMatrix type="matrix" values="0 0 0 0 0 0 0 0 0 0 0 0 0 0 0 0 0 0 0.25 0"/>
			<feBlend mode="normal" in2="BackgroundImageFix" result="effect_dropShadow_1"/>
			<feBlend mode="normal" in="SourceGraphic" in2="effect_dropShadow_1" result="shape"/>
		</filter>
		<clipPath id="clip37_233">
			<rect id="money-dollar-box-fill" width="24.000000" height="24.000000" fill="white" fill-opacity="0"/>
		</clipPath>
	</defs>
	<rect id="money-dollar-box-fill" width="24.000000" height="24.000000" fill="#FFFFFF" fill-opacity="0"/>
	<g clip-path="url(#clip37_233)">
		<g filter="url(#filter_37_234_dd)">
			<path id="矢量 52" d="M3 3L21 3C21.26 3 21.51 3.1 21.7 3.29C21.89 3.48 22 3.73 22 4L22 20C22 20.26 21.89 20.51 21.7 20.7C21.51 20.89 21.26 21 21 21L3 21C2.73 21 2.48 20.89 2.29 20.7C2.1 20.51 2 20.26 2 20L2 4C2 3.73 2.1 3.48 2.29 3.29C2.48 3.1 2.73 3 3 3L3 3ZM8.5 14L8.5 16L11 16L11 18L13 18L13 16L14 16C14.66 16 15.29 15.73 15.76 15.26C16.23 14.79 16.5 14.16 16.5 13.5C16.5 12.83 16.23 12.2 15.76 11.73C15.29 11.26 14.66 11 14 11L10 11C9.86 11 9.74 10.94 9.64 10.85C9.55 10.75 9.5 10.63 9.5 10.5C9.5 10.36 9.55 10.24 9.64 10.14C9.74 10.05 9.86 10 10 10L15.5 10L15.5 8L13 8L13 6L11 6L11 8L10 8C9.33 8 8.7 8.26 8.23 8.73C7.76 9.2 7.5 9.83 7.5 10.5C7.5 11.16 7.76 11.79 8.23 12.26C8.7 12.73 9.33 13 10 13L14 13C14.13 13 14.25 13.05 14.35 13.14C14.44 13.24 14.5 13.36 14.5 13.5C14.5 13.63 14.44 13.75 14.35 13.85C14.25 13.94 14.13 14 14 14L8.5 14Z" fill="#FFFFFF" fill-opacity="1.000000" fill-rule="evenodd"/>
		</g>
	</g>
</svg>
